<svg xmlns="http://www.w3.org/2000/svg" xmlns:xlink="http://www.w3.org/1999/xlink" width="500" zoomAndPan="magnify" viewBox="0 0 375 374.999991" height="500" preserveAspectRatio="xMidYMid meet" version="1.0"><defs><g/><clipPath id="60f940e203"><path d="M 22.238281 22.238281 L 352.761719 22.238281 L 352.761719 352.761719 L 22.238281 352.761719 Z M 22.238281 22.238281 " clip-rule="nonzero"/></clipPath><clipPath id="4692417837"><path d="M 187.5 22.238281 C 96.230469 22.238281 22.238281 96.230469 22.238281 187.5 C 22.238281 278.769531 96.230469 352.761719 187.5 352.761719 C 278.769531 352.761719 352.761719 278.769531 352.761719 187.5 C 352.761719 96.230469 278.769531 22.238281 187.5 22.238281 Z M 187.5 22.238281 " clip-rule="nonzero"/></clipPath><clipPath id="65ae87e207"><path d="M 31.128906 31.128906 L 343.871094 31.128906 L 343.871094 343.871094 L 31.128906 343.871094 Z M 31.128906 31.128906 " clip-rule="nonzero"/></clipPath><clipPath id="be5c233009"><path d="M 187.5 31.128906 C 101.136719 31.128906 31.128906 101.136719 31.128906 187.5 C 31.128906 273.863281 101.136719 343.871094 187.5 343.871094 C 273.863281 343.871094 343.871094 273.863281 343.871094 187.5 C 343.871094 101.136719 273.863281 31.128906 187.5 31.128906 Z M 187.5 31.128906 " clip-rule="nonzero"/></clipPath><clipPath id="1f7f4c2c82"><path d="M 95.835938 95.835938 L 279.164062 95.835938 L 279.164062 279.164062 L 95.835938 279.164062 Z M 95.835938 95.835938 " clip-rule="nonzero"/></clipPath><clipPath id="ff36c24d8a"><path d="M 187.5 95.835938 C 136.875 95.835938 95.835938 136.875 95.835938 187.5 C 95.835938 238.125 136.875 279.164062 187.5 279.164062 C 238.125 279.164062 279.164062 238.125 279.164062 187.5 C 279.164062 136.875 238.125 95.835938 187.5 95.835938 Z M 187.5 95.835938 " clip-rule="nonzero"/></clipPath><clipPath id="357c21cf98"><path d="M 142 119 L 234 119 L 234 259 L 142 259 Z M 142 119 " clip-rule="nonzero"/></clipPath><clipPath id="d32186ec8b"><path d="M 135.953125 121.960938 L 222.375 111.941406 L 238.699219 252.75 L 152.277344 262.765625 Z M 135.953125 121.960938 " clip-rule="nonzero"/></clipPath><clipPath id="898e1d89df"><path d="M 135.953125 121.960938 L 222.375 111.941406 L 238.699219 252.75 L 152.277344 262.765625 Z M 135.953125 121.960938 " clip-rule="nonzero"/></clipPath><clipPath id="2a2679af6c"><path d="M 147 124 L 229 124 L 229 254 L 147 254 Z M 147 124 " clip-rule="nonzero"/></clipPath><clipPath id="d71daf5d61"><path d="M 135.953125 121.960938 L 222.375 111.941406 L 238.699219 252.75 L 152.277344 262.765625 Z M 135.953125 121.960938 " clip-rule="nonzero"/></clipPath><clipPath id="77f815d070"><path d="M 135.953125 121.960938 L 222.375 111.941406 L 238.699219 252.75 L 152.277344 262.765625 Z M 135.953125 121.960938 " clip-rule="nonzero"/></clipPath><clipPath id="13d243e8e2"><path d="M 157 183 L 227 183 L 227 253 L 157 253 Z M 157 183 " clip-rule="nonzero"/></clipPath><clipPath id="dc743bd047"><path d="M 135.953125 121.960938 L 222.375 111.941406 L 238.699219 252.75 L 152.277344 262.765625 Z M 135.953125 121.960938 " clip-rule="nonzero"/></clipPath><clipPath id="c8a749ae3e"><path d="M 135.953125 121.960938 L 222.375 111.941406 L 238.699219 252.75 L 152.277344 262.765625 Z M 135.953125 121.960938 " clip-rule="nonzero"/></clipPath><clipPath id="e21d02fda9"><path d="M 148 154 L 223 154 L 223 185 L 148 185 Z M 148 154 " clip-rule="nonzero"/></clipPath><clipPath id="78aa7c4de8"><path d="M 135.953125 121.960938 L 222.375 111.941406 L 238.699219 252.75 L 152.277344 262.765625 Z M 135.953125 121.960938 " clip-rule="nonzero"/></clipPath><clipPath id="505595224c"><path d="M 135.953125 121.960938 L 222.375 111.941406 L 238.699219 252.75 L 152.277344 262.765625 Z M 135.953125 121.960938 " clip-rule="nonzero"/></clipPath><clipPath id="1387d4dbc8"><path d="M 48.632812 173.464844 L 76.699219 173.464844 L 76.699219 201.535156 L 48.632812 201.535156 Z M 48.632812 173.464844 " clip-rule="nonzero"/></clipPath><clipPath id="83f68728c2"><path d="M 62.667969 173.464844 C 54.917969 173.464844 48.632812 179.75 48.632812 187.5 C 48.632812 195.25 54.917969 201.535156 62.667969 201.535156 C 70.417969 201.535156 76.699219 195.25 76.699219 187.5 C 76.699219 179.75 70.417969 173.464844 62.667969 173.464844 Z M 62.667969 173.464844 " clip-rule="nonzero"/></clipPath><clipPath id="864a7a169e"><path d="M 298.300781 173.464844 L 326.367188 173.464844 L 326.367188 201.535156 L 298.300781 201.535156 Z M 298.300781 173.464844 " clip-rule="nonzero"/></clipPath><clipPath id="83c17e7982"><path d="M 312.332031 173.464844 C 304.582031 173.464844 298.300781 179.75 298.300781 187.5 C 298.300781 195.25 304.582031 201.535156 312.332031 201.535156 C 320.082031 201.535156 326.367188 195.25 326.367188 187.5 C 326.367188 179.75 320.082031 173.464844 312.332031 173.464844 Z M 312.332031 173.464844 " clip-rule="nonzero"/></clipPath></defs><g clip-path="url(#60f940e203)"><g clip-path="url(#4692417837)"><path fill="#efdeb6" d="M 22.238281 22.238281 L 352.761719 22.238281 L 352.761719 352.761719 L 22.238281 352.761719 Z M 22.238281 22.238281 " fill-opacity="1" fill-rule="nonzero"/></g></g><g clip-path="url(#65ae87e207)"><g clip-path="url(#be5c233009)"><path fill="#7d552e" d="M 31.128906 31.128906 L 343.871094 31.128906 L 343.871094 343.871094 L 31.128906 343.871094 Z M 31.128906 31.128906 " fill-opacity="1" fill-rule="nonzero"/></g></g><g fill="#ffffff" fill-opacity="1"><g transform="translate(120.495711, 101.002218)"><g><path d="M 9.546875 -5.40625 L -4.109375 -29.484375 L -12.9375 -24.484375 L -16.484375 -30.734375 L 8.75 -45.046875 L 12.296875 -38.796875 L 3.515625 -33.828125 L 17.171875 -9.75 Z M 9.546875 -5.40625 "/></g></g></g><g fill="#ffffff" fill-opacity="1"><g transform="translate(150.239475, 84.453744)"><g><path d="M -0.046875 0.015625 L 5.6875 -36.625 L 14.3125 -38.296875 L 33.3125 -6.484375 L 24.6875 -4.8125 L 21.09375 -11.5 L 9.375 -9.21875 L 8.5625 -1.671875 Z M 10.0625 -16.171875 L 17.90625 -17.703125 L 11.578125 -29.5625 L 11.484375 -29.546875 Z M 10.0625 -16.171875 "/></g></g></g><g fill="#ffffff" fill-opacity="1"><g transform="translate(186.758875, 77.85858)"><g><path d="M 2.359375 0.34375 L 7.40625 -34.140625 L 16.078125 -32.875 L 14.109375 -19.375 L 25.9375 -17.640625 L 27.90625 -31.140625 L 36.578125 -29.859375 L 31.53125 4.625 L 22.859375 3.34375 L 24.890625 -10.546875 L 13.0625 -12.28125 L 11.03125 1.609375 Z M 2.359375 0.34375 "/></g></g></g><g fill="#ffffff" fill-opacity="1"><g transform="translate(223.604613, 83.597136)"><g><path d="M 15.6875 9.3125 C 12.445312 7.570312 10.0625 5.394531 8.53125 2.78125 C 7.007812 0.175781 6.3125 -2.648438 6.4375 -5.703125 C 6.5625 -8.753906 7.457031 -11.828125 9.125 -14.921875 C 10.78125 -18.015625 12.835938 -20.441406 15.296875 -22.203125 C 17.765625 -23.972656 20.507812 -24.941406 23.53125 -25.109375 C 26.5625 -25.285156 29.695312 -24.503906 32.9375 -22.765625 C 36.164062 -21.023438 38.535156 -18.851562 40.046875 -16.25 C 41.554688 -13.644531 42.257812 -10.820312 42.15625 -7.78125 C 42.0625 -4.738281 41.1875 -1.671875 39.53125 1.421875 C 37.863281 4.515625 35.785156 6.945312 33.296875 8.71875 C 30.804688 10.5 28.054688 11.476562 25.046875 11.65625 C 22.035156 11.832031 18.914062 11.050781 15.6875 9.3125 Z M 19.09375 3 C 20.957031 4 22.664062 4.351562 24.21875 4.0625 C 25.78125 3.78125 27.191406 3.019531 28.453125 1.78125 C 29.722656 0.539062 30.835938 -0.960938 31.796875 -2.734375 C 32.742188 -4.503906 33.378906 -6.253906 33.703125 -7.984375 C 34.023438 -9.710938 33.875 -11.304688 33.25 -12.765625 C 32.632812 -14.222656 31.394531 -15.453125 29.53125 -16.453125 C 27.664062 -17.453125 25.945312 -17.8125 24.375 -17.53125 C 22.8125 -17.25 21.40625 -16.492188 20.15625 -15.265625 C 18.90625 -14.035156 17.804688 -12.535156 16.859375 -10.765625 C 15.898438 -8.992188 15.25 -7.238281 14.90625 -5.5 C 14.570312 -3.757812 14.71875 -2.15625 15.34375 -0.6875 C 15.976562 0.769531 17.226562 2 19.09375 3 Z M 19.09375 3 "/></g></g></g><g clip-path="url(#1f7f4c2c82)"><g clip-path="url(#ff36c24d8a)"><path fill="#efdeb6" d="M 95.835938 95.835938 L 279.164062 95.835938 L 279.164062 279.164062 L 95.835938 279.164062 Z M 95.835938 95.835938 " fill-opacity="1" fill-rule="nonzero"/></g></g><g clip-path="url(#357c21cf98)"><g clip-path="url(#d32186ec8b)"><g clip-path="url(#898e1d89df)"><path fill="#ffffff" d="M 228.382812 163.054688 L 226.558594 155.515625 C 226.367188 154.726562 226.046875 153.980469 225.605469 153.292969 C 224.863281 152.125 223.808594 151.167969 222.464844 150.441406 C 222.246094 150.316406 222.042969 150.21875 221.871094 150.136719 C 221.390625 149.910156 220.859375 149.707031 220.292969 149.527344 C 219.96875 149.421875 219.609375 149.320312 219.226562 149.222656 C 218.21875 148.972656 217.101562 148.78125 215.917969 148.660156 C 215.390625 148.601562 214.816406 148.554688 214.21875 148.515625 L 214.023438 148.507812 C 213.652344 148.488281 213.277344 148.472656 212.886719 148.457031 C 211.832031 148.425781 210.683594 148.421875 209.46875 148.453125 C 209.035156 148.464844 208.59375 148.480469 208.144531 148.5 L 208.113281 148.503906 C 206.722656 148.558594 205.234375 148.664062 203.6875 148.808594 L 203.613281 148.816406 C 203.113281 148.863281 202.597656 148.914062 202.070312 148.96875 L 202.03125 148.972656 C 201.5 149.03125 200.960938 149.089844 200.414062 149.15625 C 199.859375 149.222656 199.300781 149.289062 198.738281 149.367188 C 198.175781 149.441406 197.601562 149.523438 197.058594 149.601562 C 196.472656 149.683594 195.886719 149.777344 195.292969 149.871094 C 193.25 150.191406 191.128906 150.566406 188.988281 150.992188 L 188.871094 151.015625 C 186.390625 151.503906 183.835938 152.066406 181.277344 152.683594 C 179.339844 153.152344 177.414062 153.648438 175.527344 154.167969 L 163.785156 121.277344 C 163.539062 121.046875 163.253906 120.816406 162.933594 120.605469 L 161.019531 119.757812 C 160.191406 119.539062 159.21875 119.433594 158.070312 119.507812 C 156.304688 119.625 154.550781 120.105469 153.386719 120.492188 C 152.617188 120.746094 151.113281 121.296875 149.703125 122.101562 C 148.429688 122.828125 147.519531 123.617188 146.875 124.414062 L 145.796875 126.273438 C 145.660156 126.644531 145.570312 127.003906 145.511719 127.347656 L 155.933594 161.019531 C 155.777344 161.09375 155.621094 161.164062 155.46875 161.234375 C 154.320312 161.761719 153.226562 162.296875 152.226562 162.824219 C 151.886719 163.003906 151.554688 163.183594 151.234375 163.359375 L 151.207031 163.375 C 150.847656 163.570312 150.496094 163.769531 150.140625 163.980469 C 149.601562 164.300781 149.09375 164.617188 148.644531 164.914062 C 147.890625 165.402344 147.195312 165.90625 146.570312 166.410156 C 146.347656 166.589844 146.140625 166.765625 145.941406 166.9375 C 145.648438 167.195312 145.378906 167.445312 145.136719 167.6875 C 144.710938 168.113281 144.328125 168.542969 144 168.972656 C 143.878906 169.125 143.753906 169.292969 143.628906 169.484375 C 142.753906 170.757812 142.25 172.097656 142.125 173.46875 C 142.046875 174.285156 142.101562 175.101562 142.292969 175.890625 L 144.117188 183.425781 C 144.519531 185.09375 145.703125 187.367188 149.027344 188.890625 L 156.675781 209.015625 C 157.128906 210.363281 158.085938 212.027344 160.101562 213.359375 L 173.613281 251.382812 C 175.472656 257.277344 182.703125 259.539062 195.105469 258.101562 C 198.589844 257.695312 202.453125 256.996094 206.273438 256.070312 C 217.113281 253.449219 234.972656 247.496094 233.183594 236.984375 L 227.832031 196.972656 C 227.835938 196.964844 227.84375 196.953125 227.851562 196.941406 C 228.777344 195.46875 229.183594 193.730469 228.957031 192.003906 C 228.933594 191.816406 226.519531 170.265625 226.519531 170.265625 C 228.777344 167.324219 228.785156 164.734375 228.382812 163.054688 Z M 228.382812 163.054688 " fill-opacity="1" fill-rule="nonzero"/></g></g></g><g clip-path="url(#2a2679af6c)"><g clip-path="url(#d71daf5d61)"><g clip-path="url(#77f815d070)"><path fill="#7d552e" d="M 223.542969 164.226562 L 221.71875 156.691406 C 221.660156 156.4375 221.554688 156.195312 221.410156 155.972656 C 221.125 155.515625 220.660156 155.121094 220.058594 154.800781 C 219.960938 154.742188 219.855469 154.691406 219.75 154.640625 C 219.460938 154.507812 219.128906 154.378906 218.769531 154.265625 C 218.546875 154.195312 218.296875 154.121094 218.027344 154.054688 C 217.246094 153.859375 216.355469 153.710938 215.386719 153.609375 C 214.910156 153.558594 214.386719 153.515625 213.839844 153.480469 C 213.835938 153.480469 213.835938 153.480469 213.832031 153.480469 C 213.472656 153.464844 213.109375 153.445312 212.726562 153.433594 C 211.757812 153.402344 210.707031 153.402344 209.597656 153.433594 C 209.195312 153.441406 208.785156 153.457031 208.363281 153.476562 C 208.359375 153.476562 208.351562 153.476562 208.347656 153.476562 C 207.019531 153.53125 205.59375 153.628906 204.101562 153.769531 C 204.097656 153.769531 204.097656 153.769531 204.09375 153.769531 C 203.597656 153.820312 203.089844 153.867188 202.574219 153.921875 C 202.058594 153.976562 201.539062 154.035156 201.011719 154.097656 C 200.480469 154.164062 199.941406 154.226562 199.402344 154.304688 C 198.859375 154.375 198.308594 154.449219 197.757812 154.53125 C 197.195312 154.613281 196.632812 154.699219 196.066406 154.789062 C 194.082031 155.101562 192.023438 155.464844 189.949219 155.875 C 189.933594 155.878906 189.914062 155.882812 189.898438 155.886719 C 189.875 155.890625 189.855469 155.894531 189.835938 155.898438 C 187.421875 156.375 184.9375 156.921875 182.449219 157.523438 C 179.957031 158.125 177.488281 158.777344 175.109375 159.460938 C 175.097656 159.464844 175.085938 159.464844 175.074219 159.46875 C 175.0625 159.472656 175.046875 159.476562 175.035156 159.480469 C 174.117188 159.742188 173.210938 160.011719 172.3125 160.289062 L 169.066406 150.507812 C 169.039062 150.421875 160.648438 125.316406 160.648438 125.316406 C 160.644531 125.300781 160.636719 125.285156 160.628906 125.269531 C 160.273438 124.355469 158.863281 124.445312 158.394531 124.476562 C 157.421875 124.539062 156.203125 124.804688 154.957031 125.21875 C 154.105469 125.5 149.886719 126.996094 150.453125 128.703125 C 150.453125 128.703125 150.453125 128.703125 150.453125 128.707031 L 162.109375 163.820312 C 161.894531 163.902344 161.6875 163.988281 161.480469 164.070312 C 160.078125 164.632812 158.75 165.203125 157.546875 165.757812 C 156.472656 166.25 155.46875 166.746094 154.546875 167.230469 C 154.238281 167.394531 153.9375 167.554688 153.648438 167.714844 C 153.644531 167.71875 153.636719 167.722656 153.632812 167.726562 C 153.300781 167.90625 152.984375 168.085938 152.679688 168.265625 C 152.207031 168.546875 151.765625 168.820312 151.363281 169.085938 C 150.75 169.484375 150.191406 169.890625 149.691406 170.289062 C 149.527344 170.421875 149.367188 170.554688 149.214844 170.6875 C 149.003906 170.871094 148.816406 171.050781 148.65625 171.210938 C 148.382812 171.484375 148.144531 171.746094 147.949219 172 C 147.878906 172.09375 147.808594 172.1875 147.761719 172.257812 C 147.359375 172.839844 147.128906 173.40625 147.082031 173.933594 C 147.054688 174.203125 147.074219 174.46875 147.132812 174.71875 L 148.957031 182.257812 C 149.171875 183.152344 149.980469 183.898438 151.359375 184.476562 C 151.804688 184.664062 152.316406 184.835938 152.875 184.988281 L 161.375 207.359375 C 161.730469 208.507812 162.726562 209.3125 164.140625 209.859375 L 178.34375 249.816406 C 179.414062 253.421875 186.269531 254.113281 194.53125 253.15625 C 197.917969 252.761719 201.542969 252.089844 205.101562 251.230469 C 217.339844 248.273438 229.238281 242.960938 228.261719 237.75 L 222.640625 195.707031 C 223.171875 195.113281 223.5625 194.507812 223.785156 193.898438 C 223.8125 193.863281 223.839844 193.828125 223.867188 193.792969 L 223.847656 193.726562 C 224.003906 193.230469 224.050781 192.730469 223.960938 192.230469 L 221.320312 168.585938 C 221.753906 168.179688 222.132812 167.78125 222.4375 167.402344 C 223.394531 166.222656 223.765625 165.152344 223.542969 164.226562 Z M 179.875 188.519531 C 179.816406 188.515625 179.753906 188.515625 179.695312 188.511719 C 179.464844 188.507812 179.242188 188.503906 179.023438 188.5 C 178.976562 188.5 178.929688 188.5 178.882812 188.5 C 178.710938 188.5 178.542969 188.496094 178.375 188.5 C 178.300781 188.5 178.226562 188.5 178.152344 188.5 C 178.015625 188.5 177.878906 188.503906 177.746094 188.507812 C 177.667969 188.507812 177.589844 188.511719 177.515625 188.511719 C 177.386719 188.515625 177.257812 188.519531 177.128906 188.527344 C 177.058594 188.53125 176.984375 188.53125 176.910156 188.535156 C 176.777344 188.542969 176.644531 188.550781 176.515625 188.558594 C 176.453125 188.5625 176.394531 188.566406 176.332031 188.570312 C 176.144531 188.582031 175.960938 188.597656 175.777344 188.613281 C 175.101562 188.671875 174.421875 188.742188 173.753906 188.820312 C 173.714844 188.824219 173.683594 188.828125 173.644531 188.832031 C 173.484375 188.851562 173.324219 188.875 173.160156 188.894531 C 172.753906 188.945312 172.34375 188.996094 171.941406 189.050781 L 170.851562 185.773438 C 172.445312 185.65625 174.074219 185.5 175.71875 185.308594 C 176.832031 185.179688 177.949219 185.035156 179.070312 184.875 L 180.285156 188.53125 C 180.144531 188.527344 180.011719 188.523438 179.875 188.519531 Z M 155.375 126.476562 C 157.226562 125.863281 158.582031 125.738281 159.183594 125.804688 C 158.742188 126.210938 157.582031 126.925781 155.726562 127.539062 C 153.871094 128.15625 152.515625 128.277344 151.914062 128.214844 C 152.359375 127.804688 153.519531 127.09375 155.375 126.476562 Z M 152.132812 129.554688 C 152.449219 129.5625 152.785156 129.542969 153.128906 129.503906 C 154.394531 129.359375 155.710938 128.945312 156.144531 128.800781 C 157.390625 128.386719 158.527344 127.867188 159.34375 127.339844 C 159.453125 127.269531 159.625 127.15625 159.8125 127.011719 L 172.980469 166.683594 C 172.746094 167.03125 171.527344 167.882812 169.351562 168.605469 C 167.183594 169.324219 165.695312 169.371094 165.300781 169.234375 Z M 154.429688 185.351562 C 158.175781 186.078125 163.535156 186.234375 169.484375 185.867188 L 170.609375 189.253906 C 163.453125 190.398438 158.960938 192.253906 157.339844 193.011719 Z M 221.804688 184.886719 C 220.609375 184.039062 218.601562 182.945312 215.71875 182.476562 C 211.285156 181.75 203.847656 182.4375 193.527344 189.785156 C 192.289062 189.65625 191.0625 189.519531 189.855469 189.382812 C 186.980469 189.0625 184.265625 188.761719 181.710938 188.605469 L 180.402344 184.671875 C 183.46875 184.199219 186.53125 183.605469 189.464844 182.894531 C 202.964844 179.632812 214.613281 174.0625 220.101562 169.644531 Z M 221.804688 184.886719 " fill-opacity="1" fill-rule="nonzero"/></g></g></g><g clip-path="url(#13d243e8e2)"><g clip-path="url(#dc743bd047)"><g clip-path="url(#c8a749ae3e)"><path fill="#fcc28a" d="M 195.566406 189.988281 C 204.796875 183.765625 211.414062 183.144531 215.40625 183.769531 C 218.574219 184.265625 220.609375 185.605469 221.546875 186.363281 C 213.730469 190.988281 204.191406 190.796875 195.566406 189.988281 Z M 222.105469 187.574219 L 222.644531 192.398438 C 222.644531 192.414062 222.648438 192.429688 222.652344 192.445312 C 223.171875 195.277344 216.484375 199.363281 205.199219 203.105469 L 205.617188 204.367188 C 210.546875 202.730469 217.683594 199.996094 221.453125 196.847656 L 226.945312 237.945312 C 226.949219 237.957031 226.949219 237.96875 226.953125 237.984375 C 227.648438 241.578125 218.121094 246.71875 204.789062 249.941406 C 191.457031 253.164062 180.632812 252.941406 179.609375 249.425781 C 179.609375 249.414062 179.601562 249.402344 179.597656 249.390625 L 165.714844 210.324219 C 169.296875 211.132812 174.460938 210.878906 179.117188 210.335938 C 179.347656 210.3125 179.578125 210.285156 179.804688 210.253906 L 179.644531 208.9375 C 169.726562 210.160156 163.378906 209.414062 162.636719 206.953125 C 162.632812 206.9375 162.628906 206.921875 162.621094 206.910156 L 157.816406 194.257812 C 159.320312 193.554688 164.058594 191.566406 171.585938 190.445312 C 172.988281 190.234375 174.4375 190.0625 175.894531 189.933594 C 176.523438 189.878906 177.191406 189.84375 177.902344 189.832031 C 178.472656 189.820312 179.066406 189.824219 179.699219 189.839844 C 179.730469 189.84375 179.761719 189.84375 179.792969 189.84375 C 180.242188 189.855469 180.703125 189.875 181.183594 189.902344 C 183.832031 190.042969 186.6875 190.363281 189.707031 190.703125 C 191 190.847656 192.3125 190.996094 193.644531 191.132812 C 198.816406 191.664062 204.394531 192.078125 209.824219 191.449219 C 214.097656 190.953125 218.28125 189.808594 222.105469 187.574219 Z M 186.960938 207.789062 L 187.207031 209.09375 C 191.242188 208.335938 195.503906 207.339844 199.53125 206.21875 L 199.175781 204.9375 C 195.183594 206.050781 190.960938 207.039062 186.960938 207.789062 Z M 180.246094 229.179688 C 181.726562 228.820312 182.632812 227.335938 182.277344 225.855469 C 181.917969 224.378906 180.433594 223.472656 178.953125 223.828125 C 177.476562 224.1875 176.570312 225.671875 176.925781 227.148438 C 177.285156 228.628906 178.769531 229.535156 180.246094 229.179688 Z M 188.214844 244.730469 C 187.859375 243.25 186.371094 242.34375 184.894531 242.699219 C 183.417969 243.058594 182.511719 244.542969 182.867188 246.023438 C 183.222656 247.5 184.710938 248.40625 186.1875 248.050781 C 187.664062 247.691406 188.574219 246.207031 188.214844 244.730469 Z M 188.464844 234.039062 C 188.105469 232.5625 186.621094 231.65625 185.140625 232.011719 C 183.664062 232.371094 182.757812 233.855469 183.113281 235.332031 C 183.472656 236.8125 184.957031 237.71875 186.433594 237.363281 C 187.914062 237.003906 188.820312 235.519531 188.464844 234.039062 Z M 192.523438 233.335938 C 194 232.976562 194.910156 231.488281 194.550781 230.011719 C 194.195312 228.535156 192.707031 227.628906 191.230469 227.984375 C 189.753906 228.34375 188.847656 229.828125 189.203125 231.304688 C 189.558594 232.78125 191.046875 233.691406 192.523438 233.335938 Z M 198.457031 238.019531 C 198.101562 236.542969 196.613281 235.632812 195.136719 235.992188 C 193.660156 236.347656 192.753906 237.835938 193.109375 239.3125 C 193.464844 240.789062 194.953125 241.699219 196.429688 241.339844 C 197.90625 240.984375 198.816406 239.496094 198.457031 238.019531 Z M 199.789062 230.789062 C 200.148438 232.269531 201.632812 233.175781 203.109375 232.820312 C 204.589844 232.460938 205.496094 230.976562 205.140625 229.496094 C 204.78125 228.019531 203.296875 227.113281 201.820312 227.46875 C 200.339844 227.828125 199.433594 229.3125 199.789062 230.789062 Z M 207.039062 241.605469 C 206.683594 240.128906 205.195312 239.222656 203.71875 239.578125 C 202.242188 239.9375 201.335938 241.421875 201.691406 242.898438 C 202.046875 244.375 203.535156 245.285156 205.011719 244.929688 C 206.488281 244.570312 207.398438 243.085938 207.039062 241.605469 Z M 214.957031 219.417969 C 215.316406 220.894531 216.800781 221.804688 218.277344 221.445312 C 219.753906 221.089844 220.664062 219.601562 220.308594 218.125 C 219.949219 216.648438 218.460938 215.742188 216.984375 216.097656 C 215.507812 216.453125 214.601562 217.941406 214.957031 219.417969 Z M 215.480469 236.734375 C 215.835938 238.214844 217.324219 239.121094 218.800781 238.765625 C 220.277344 238.40625 221.1875 236.921875 220.828125 235.441406 C 220.472656 233.964844 218.984375 233.058594 217.507812 233.414062 C 216.03125 233.773438 215.125 235.257812 215.480469 236.734375 Z M 209.0625 230.570312 C 209.421875 232.050781 210.90625 232.957031 212.382812 232.601562 C 213.859375 232.242188 214.769531 230.757812 214.414062 229.28125 C 214.054688 227.800781 212.570312 226.894531 211.089844 227.25 C 209.613281 227.609375 208.707031 229.09375 209.0625 230.570312 Z M 207.921875 232.902344 C 206.441406 233.257812 205.535156 234.746094 205.890625 236.222656 C 206.25 237.699219 207.734375 238.609375 209.210938 238.25 C 210.691406 237.894531 211.597656 236.40625 211.242188 234.929688 C 210.882812 233.453125 209.398438 232.542969 207.921875 232.902344 Z M 223.847656 193.722656 C 223.828125 193.78125 223.808594 193.839844 223.785156 193.898438 C 223.8125 193.863281 223.839844 193.828125 223.863281 193.792969 Z M 223.847656 193.722656 " fill-opacity="1" fill-rule="nonzero"/></g></g></g><g clip-path="url(#e21d02fda9)"><g clip-path="url(#78aa7c4de8)"><g clip-path="url(#505595224c)"><path fill="#efdeb6" d="M 222.25 164.539062 L 220.984375 159.296875 C 219.152344 161.765625 214.492188 164.230469 210.613281 165.964844 L 210.070312 164.753906 C 216.003906 162.097656 219.761719 159.523438 220.378906 157.683594 C 220.460938 157.433594 220.480469 157.210938 220.429688 157.003906 C 220.402344 156.890625 220.359375 156.789062 220.289062 156.683594 C 220.125 156.425781 219.832031 156.183594 219.414062 155.960938 C 219.328125 155.910156 219.253906 155.875 219.183594 155.84375 C 218.949219 155.734375 218.675781 155.628906 218.363281 155.53125 C 218.167969 155.464844 217.945312 155.402344 217.707031 155.34375 C 216.984375 155.164062 216.15625 155.023438 215.246094 154.929688 C 214.789062 154.878906 214.289062 154.839844 213.757812 154.808594 C 213.417969 154.789062 213.058594 154.773438 212.6875 154.761719 C 211.777344 154.730469 210.792969 154.730469 209.757812 154.757812 C 209.320312 154.765625 208.878906 154.78125 208.421875 154.800781 C 207.117188 154.859375 205.699219 154.957031 204.214844 155.09375 C 204.210938 155.09375 204.203125 155.09375 204.199219 155.09375 C 203.726562 155.136719 203.25 155.183594 202.765625 155.238281 C 202.746094 155.238281 202.730469 155.238281 202.710938 155.242188 C 202.707031 155.242188 202.707031 155.242188 202.703125 155.242188 C 202.199219 155.296875 201.6875 155.355469 201.167969 155.417969 C 200.644531 155.480469 200.113281 155.550781 199.574219 155.621094 C 199.550781 155.625 199.523438 155.625 199.5 155.628906 C 199.007812 155.695312 198.507812 155.765625 198.007812 155.835938 C 197.984375 155.839844 197.964844 155.84375 197.941406 155.847656 C 197.386719 155.925781 196.832031 156.011719 196.269531 156.101562 C 194.3125 156.410156 192.277344 156.773438 190.21875 157.175781 C 190.199219 157.179688 190.175781 157.183594 190.15625 157.1875 C 190.128906 157.195312 190.097656 157.199219 190.070312 157.207031 C 187.652344 157.6875 185.195312 158.230469 182.761719 158.816406 C 180.304688 159.410156 177.839844 160.058594 175.441406 160.746094 C 175.441406 160.746094 175.4375 160.746094 175.4375 160.746094 C 174.511719 161.015625 173.589844 161.289062 172.679688 161.566406 L 174.277344 166.382812 C 174.597656 167.347656 173.375 168.140625 172.972656 168.402344 C 172.15625 168.933594 171.019531 169.453125 169.773438 169.863281 C 168.707031 170.21875 167.660156 170.460938 166.769531 170.566406 C 166.621094 170.582031 166.476562 170.597656 166.335938 170.605469 C 165.859375 170.636719 164.402344 170.734375 164.082031 169.765625 L 162.527344 165.085938 C 162.34375 165.160156 162.15625 165.230469 161.976562 165.304688 C 161.96875 165.308594 161.957031 165.3125 161.949219 165.316406 C 160.597656 165.859375 159.320312 166.40625 158.152344 166.941406 C 158.136719 166.949219 158.121094 166.957031 158.101562 166.964844 C 157.101562 167.425781 156.164062 167.882812 155.296875 168.335938 C 154.953125 168.515625 154.613281 168.699219 154.292969 168.875 C 153.96875 169.058594 153.65625 169.234375 153.351562 169.410156 C 152.898438 169.679688 152.476562 169.945312 152.09375 170.195312 C 151.324219 170.699219 150.648438 171.199219 150.089844 171.6875 C 149.902344 171.851562 149.738281 172.007812 149.59375 172.152344 C 149.355469 172.386719 149.160156 172.605469 149.003906 172.808594 C 148.953125 172.871094 148.90625 172.933594 148.867188 172.996094 C 148.582031 173.40625 148.429688 173.753906 148.402344 174.054688 C 148.390625 174.1875 148.398438 174.296875 148.425781 174.40625 C 148.472656 174.617188 148.589844 174.804688 148.78125 174.992188 C 149.460938 175.652344 151.609375 176.75 158.363281 176.667969 L 158.378906 177.996094 C 153.960938 178.050781 150.8125 177.617188 148.980469 176.707031 L 150.246094 181.945312 C 150.355469 182.394531 150.933594 182.859375 151.871094 183.253906 C 157.234375 185.511719 173.496094 185.390625 189.15625 181.605469 C 204.585938 177.875 217.910156 170.894531 221.402344 166.570312 C 222.078125 165.734375 222.371094 165.035156 222.25 164.539062 Z M 191.402344 172.605469 L 191.050781 171.324219 C 195.6875 170.066406 200.050781 168.679688 204.019531 167.210938 L 204.484375 168.453125 C 200.476562 169.9375 196.074219 171.335938 191.402344 172.605469 Z M 191.402344 172.605469 " fill-opacity="1" fill-rule="nonzero"/></g></g></g><g clip-path="url(#1387d4dbc8)"><g clip-path="url(#83f68728c2)"><path fill="#ffffff" d="M 48.632812 173.464844 L 76.699219 173.464844 L 76.699219 201.535156 L 48.632812 201.535156 Z M 48.632812 173.464844 " fill-opacity="1" fill-rule="nonzero"/></g></g><path fill="#ffffff" d="M 27.273438 240.789062 C 27.273438 241.089844 27.242188 241.386719 27.183594 241.679688 C 27.125 241.976562 27.039062 242.261719 26.925781 242.539062 C 26.808594 242.816406 26.667969 243.078125 26.503906 243.328125 C 26.335938 243.578125 26.144531 243.808594 25.933594 244.023438 C 25.722656 244.234375 25.492188 244.421875 25.242188 244.589844 C 24.992188 244.757812 24.726562 244.898438 24.449219 245.011719 C 24.171875 245.128906 23.886719 245.214844 23.59375 245.273438 C 23.300781 245.332031 23.003906 245.359375 22.703125 245.359375 C 22.402344 245.359375 22.105469 245.332031 21.808594 245.273438 C 21.515625 245.214844 21.230469 245.128906 20.953125 245.011719 C 20.675781 244.898438 20.410156 244.757812 20.164062 244.589844 C 19.914062 244.421875 19.683594 244.234375 19.46875 244.023438 C 19.257812 243.808594 19.066406 243.578125 18.902344 243.328125 C 18.734375 243.078125 18.59375 242.816406 18.480469 242.539062 C 18.363281 242.261719 18.277344 241.976562 18.21875 241.679688 C 18.160156 241.386719 18.132812 241.089844 18.132812 240.789062 C 18.132812 240.488281 18.160156 240.191406 18.21875 239.898438 C 18.277344 239.601562 18.363281 239.316406 18.480469 239.039062 C 18.59375 238.761719 18.734375 238.5 18.902344 238.25 C 19.066406 238 19.257812 237.769531 19.46875 237.558594 C 19.683594 237.34375 19.914062 237.15625 20.164062 236.988281 C 20.410156 236.820312 20.675781 236.679688 20.953125 236.566406 C 21.230469 236.453125 21.515625 236.363281 21.808594 236.304688 C 22.105469 236.246094 22.402344 236.21875 22.703125 236.21875 C 23.003906 236.21875 23.300781 236.246094 23.59375 236.304688 C 23.886719 236.363281 24.171875 236.453125 24.449219 236.566406 C 24.726562 236.679688 24.992188 236.820312 25.242188 236.988281 C 25.492188 237.15625 25.722656 237.34375 25.933594 237.558594 C 26.144531 237.769531 26.335938 238 26.503906 238.25 C 26.667969 238.5 26.808594 238.761719 26.925781 239.039062 C 27.039062 239.316406 27.125 239.601562 27.183594 239.898438 C 27.242188 240.191406 27.273438 240.488281 27.273438 240.789062 Z M 27.273438 240.789062 " fill-opacity="1" fill-rule="nonzero"/><g fill="#ffffff" fill-opacity="1"><g transform="translate(52.941582, 230.523543)"><g><path d="M 27.1875 9.90625 L 21.546875 -3.34375 L 14.125 -0.203125 L 19.34375 12.09375 L 17.203125 13.015625 L 11.984375 0.71875 L 2.09375 4.921875 L 0.9375 2.21875 L 22.5625 -6.984375 L 29.359375 8.96875 Z M 27.1875 9.90625 "/></g></g></g><g fill="#ffffff" fill-opacity="1"><g transform="translate(65.052496, 257.520976)"><g><path d="M 7.5625 11.359375 C 5.96875 9.171875 5.085938 7.0625 4.921875 5.03125 C 4.765625 3.007812 5.203125 1.117188 6.234375 -0.640625 C 7.273438 -2.410156 8.742188 -3.988281 10.640625 -5.375 C 12.523438 -6.75 14.460938 -7.660156 16.453125 -8.109375 C 18.453125 -8.554688 20.398438 -8.398438 22.296875 -7.640625 C 24.203125 -6.878906 25.953125 -5.40625 27.546875 -3.21875 C 29.160156 -1.007812 30.03125 1.109375 30.15625 3.140625 C 30.289062 5.179688 29.847656 7.082031 28.828125 8.84375 C 27.804688 10.613281 26.351562 12.1875 24.46875 13.5625 C 22.570312 14.945312 20.628906 15.851562 18.640625 16.28125 C 16.648438 16.71875 14.707031 16.554688 12.8125 15.796875 C 10.925781 15.046875 9.175781 13.566406 7.5625 11.359375 Z M 12.453125 -2.890625 C 9.796875 -0.953125 8.203125 1.0625 7.671875 3.15625 C 7.148438 5.25 7.769531 7.503906 9.53125 9.921875 C 11.3125 12.359375 13.28125 13.640625 15.4375 13.765625 C 17.59375 13.898438 20 13 22.65625 11.0625 C 25.320312 9.113281 26.921875 7.09375 27.453125 5 C 27.984375 2.914062 27.359375 0.65625 25.578125 -1.78125 C 23.816406 -4.195312 21.851562 -5.472656 19.6875 -5.609375 C 17.53125 -5.742188 15.117188 -4.835938 12.453125 -2.890625 Z M 12.453125 -2.890625 "/></g></g></g><g fill="#ffffff" fill-opacity="1"><g transform="translate(86.750579, 285.235532)"><g><path d="M 19.125 8.140625 L 17.515625 10.03125 C 16.941406 10.6875 16.503906 11.269531 16.203125 11.78125 C 15.898438 12.300781 15.640625 12.765625 15.421875 13.171875 L 13.25 11.3125 C 13.414062 10.9375 13.660156 10.492188 13.984375 9.984375 C 14.304688 9.484375 14.738281 8.914062 15.28125 8.28125 L 16.6875 6.640625 C 17.78125 5.367188 18.234375 4.164062 18.046875 3.03125 C 17.867188 1.90625 17.164062 0.816406 15.9375 -0.234375 L 10.90625 -4.53125 L 4.0625 3.46875 L 1.828125 1.5625 L 17.09375 -16.296875 L 25.421875 -9.1875 C 27.265625 -7.601562 28.273438 -6 28.453125 -4.375 C 28.628906 -2.757812 28.109375 -1.234375 26.890625 0.203125 C 25.867188 1.390625 24.691406 2.097656 23.359375 2.328125 C 22.023438 2.566406 20.757812 2.378906 19.5625 1.765625 C 20 2.410156 20.3125 3.050781 20.5 3.6875 C 20.695312 4.332031 20.703125 5.015625 20.515625 5.734375 C 20.335938 6.460938 19.875 7.265625 19.125 8.140625 Z M 18.15625 -1.234375 C 19.40625 -0.148438 20.539062 0.304688 21.5625 0.140625 C 22.582031 -0.015625 23.53125 -0.601562 24.40625 -1.625 C 25.289062 -2.664062 25.675781 -3.671875 25.5625 -4.640625 C 25.457031 -5.617188 24.820312 -6.609375 23.65625 -7.609375 L 17.796875 -12.609375 L 12.328125 -6.203125 Z M 18.15625 -1.234375 "/></g></g></g><g fill="#ffffff" fill-opacity="1"><g transform="translate(110.329301, 303.841083)"><g/></g></g><g fill="#ffffff" fill-opacity="1"><g transform="translate(123.285739, 311.722075)"><g><path d="M 5.84375 -0.171875 L 19.3125 5.359375 L 18.40625 7.5625 L 2.21875 0.921875 L 11.15625 -20.8125 L 27.25 -14.203125 L 26.34375 -12.015625 L 12.96875 -17.515625 L 9.96875 -10.21875 L 22.359375 -5.125 L 21.484375 -2.984375 L 9.09375 -8.078125 Z M 5.84375 -0.171875 "/></g></g></g><g fill="#ffffff" fill-opacity="1"><g transform="translate(151.198804, 322.389323)"><g><path d="M 23.34375 -19.796875 L 26.28125 -19.28125 L 13.90625 2.421875 L 9.71875 1.6875 L 5.359375 -22.921875 L 8.390625 -22.390625 L 11.75 -3.40625 C 11.957031 -2.269531 12.117188 -1.191406 12.234375 -0.171875 C 12.453125 -0.660156 12.691406 -1.144531 12.953125 -1.625 C 13.222656 -2.101562 13.484375 -2.582031 13.734375 -3.0625 Z M 23.34375 -19.796875 "/></g></g></g><g fill="#ffffff" fill-opacity="1"><g transform="translate(182.579445, 326.897252)"><g><path d="M 5.234375 -2.609375 L 19.78125 -3.265625 L 19.890625 -0.890625 L 2.40625 -0.109375 L 1.34375 -23.578125 L 18.71875 -24.359375 L 18.828125 -22.015625 L 4.390625 -21.359375 L 4.75 -13.46875 L 18.125 -14.078125 L 18.21875 -11.75 L 4.84375 -11.140625 Z M 5.234375 -2.609375 "/></g></g></g><g fill="#ffffff" fill-opacity="1"><g transform="translate(212.339891, 324.767809)"><g><path d="M 17.578125 -11.078125 L 18.21875 -8.6875 C 18.4375 -7.84375 18.671875 -7.148438 18.921875 -6.609375 C 19.171875 -6.078125 19.398438 -5.601562 19.609375 -5.1875 L 16.84375 -4.453125 C 16.625 -4.804688 16.398438 -5.257812 16.171875 -5.8125 C 15.941406 -6.363281 15.71875 -7.046875 15.5 -7.859375 L 14.953125 -9.953125 C 14.523438 -11.566406 13.796875 -12.617188 12.765625 -13.109375 C 11.734375 -13.609375 10.4375 -13.65625 8.875 -13.25 L 2.484375 -11.546875 L 5.171875 -1.359375 L 2.328125 -0.609375 L -3.6875 -23.328125 L 6.90625 -26.140625 C 9.25 -26.753906 11.132812 -26.671875 12.5625 -25.890625 C 14 -25.109375 14.960938 -23.804688 15.453125 -21.984375 C 15.847656 -20.460938 15.765625 -19.09375 15.203125 -17.875 C 14.640625 -16.65625 13.765625 -15.726562 12.578125 -15.09375 C 13.359375 -15.070312 14.066406 -14.957031 14.703125 -14.75 C 15.347656 -14.550781 15.914062 -14.164062 16.40625 -13.59375 C 16.894531 -13.03125 17.285156 -12.191406 17.578125 -11.078125 Z M 9.3125 -15.625 C 10.914062 -16.039062 11.941406 -16.710938 12.390625 -17.640625 C 12.847656 -18.566406 12.90625 -19.679688 12.5625 -20.984375 C 12.207031 -22.296875 11.59375 -23.1875 10.71875 -23.65625 C 9.851562 -24.125 8.679688 -24.160156 7.203125 -23.765625 L -0.234375 -21.796875 L 1.921875 -13.65625 Z M 9.3125 -15.625 "/></g></g></g><g fill="#ffffff" fill-opacity="1"><g transform="translate(241.685817, 316.129188)"><g><path d="M 5.578125 -29.265625 L 8.5 -30.75 L 7.609375 -13.15625 L 11.359375 -5.828125 L 8.75 -4.484375 L 5 -11.8125 L -9.84375 -21.359375 L -6.859375 -22.890625 L 2.34375 -16.6875 C 2.800781 -16.332031 3.265625 -16 3.734375 -15.6875 C 4.203125 -15.375 4.671875 -15.0625 5.140625 -14.75 C 5.160156 -15.3125 5.179688 -15.875 5.203125 -16.4375 C 5.222656 -17 5.234375 -17.578125 5.234375 -18.171875 Z M 5.578125 -29.265625 "/></g></g></g><g fill="#ffffff" fill-opacity="1"><g transform="translate(268.527731, 301.646236)"><g><path d="M 10.78125 -8.390625 C 8.71875 -6.640625 6.675781 -5.609375 4.65625 -5.296875 C 2.644531 -4.984375 0.722656 -5.273438 -1.109375 -6.171875 C -2.953125 -7.066406 -4.632812 -8.410156 -6.15625 -10.203125 C -7.675781 -11.984375 -8.734375 -13.851562 -9.328125 -15.8125 C -9.921875 -17.769531 -9.90625 -19.722656 -9.28125 -21.671875 C -8.664062 -23.617188 -7.328125 -25.46875 -5.265625 -27.21875 C -3.179688 -29 -1.132812 -30.03125 0.875 -30.3125 C 2.894531 -30.59375 4.820312 -30.289062 6.65625 -29.40625 C 8.488281 -28.519531 10.164062 -27.1875 11.6875 -25.40625 C 13.207031 -23.613281 14.257812 -21.742188 14.84375 -19.796875 C 15.425781 -17.847656 15.414062 -15.90625 14.8125 -13.96875 C 14.207031 -12.03125 12.863281 -10.171875 10.78125 -8.390625 Z M -3.8125 -12.203125 C -1.675781 -9.703125 0.453125 -8.265625 2.578125 -7.890625 C 4.703125 -7.523438 6.90625 -8.3125 9.1875 -10.25 C 11.476562 -12.207031 12.609375 -14.265625 12.578125 -16.421875 C 12.554688 -18.578125 11.476562 -20.90625 9.34375 -23.40625 C 7.195312 -25.914062 5.0625 -27.359375 2.9375 -27.734375 C 0.8125 -28.109375 -1.394531 -27.316406 -3.6875 -25.359375 C -5.96875 -23.421875 -7.09375 -21.367188 -7.0625 -19.203125 C -7.039062 -17.046875 -5.957031 -14.710938 -3.8125 -12.203125 Z M -3.8125 -12.203125 "/></g></g></g><g fill="#ffffff" fill-opacity="1"><g transform="translate(294.650927, 277.933283)"><g><path d="M -7.65625 -29.5625 L -5.953125 -31.90625 L 13.109375 -18.171875 L 10.234375 -14.203125 L -10.96875 -16.328125 C -12.238281 -16.503906 -13.363281 -16.703125 -14.34375 -16.921875 L 3.125 -4.328125 L 1.40625 -1.953125 L -17.65625 -15.6875 L -14.765625 -19.6875 L 6.484375 -17.5625 C 6.929688 -17.507812 7.453125 -17.429688 8.046875 -17.328125 C 8.640625 -17.234375 9.222656 -17.117188 9.796875 -16.984375 Z M -7.65625 -29.5625 "/></g></g></g><g fill="#ffffff" fill-opacity="1"><g transform="translate(312.892724, 250.895464)"><g><path d="M -0.09375 -5.859375 L 5.625 -19.25 L 7.8125 -18.3125 L 0.9375 -2.21875 L -20.671875 -11.453125 L -13.828125 -27.4375 L -11.65625 -26.5 L -17.34375 -13.21875 L -10.09375 -10.125 L -4.828125 -22.4375 L -2.6875 -21.53125 L -7.953125 -9.21875 Z M -0.09375 -5.859375 "/></g></g></g><g clip-path="url(#864a7a169e)"><g clip-path="url(#83c17e7982)"><path fill="#ffffff" d="M 298.300781 173.464844 L 326.367188 173.464844 L 326.367188 201.535156 L 298.300781 201.535156 Z M 298.300781 173.464844 " fill-opacity="1" fill-rule="nonzero"/></g></g></svg>